<mxfile host="Electron" modified="2024-05-10T21:42:46.584Z" agent="Mozilla/5.0 (Macintosh; Intel Mac OS X 10_15_7) AppleWebKit/537.36 (KHTML, like Gecko) draw.io/24.2.5 Chrome/120.0.6099.109 Electron/28.1.0 Safari/537.36" etag="nK3Xy6H4RbqMTRTW4wtz" version="24.2.5" type="device">
  <diagram name="Page-1" id="Yx_swen26T5r7k2S_pAX">
    <mxGraphModel dx="545" dy="349" grid="1" gridSize="10" guides="1" tooltips="1" connect="1" arrows="1" fold="1" page="1" pageScale="1" pageWidth="827" pageHeight="1169" math="0" shadow="0">
      <root>
        <mxCell id="0" />
        <mxCell id="1" parent="0" />
        <mxCell id="f_g_cmKm8SdJph2aCt_0-59" value="" style="rounded=0;whiteSpace=wrap;html=1;strokeColor=none;" vertex="1" parent="1">
          <mxGeometry x="270" y="300" width="380" height="270" as="geometry" />
        </mxCell>
        <mxCell id="f_g_cmKm8SdJph2aCt_0-27" value="" style="group;flipH=1;" vertex="1" connectable="0" parent="1">
          <mxGeometry x="320" y="488" width="320" height="20" as="geometry" />
        </mxCell>
        <mxCell id="f_g_cmKm8SdJph2aCt_0-47" value="" style="rounded=0;whiteSpace=wrap;html=1;strokeColor=none;fillColor=#f5f5f5;fontColor=#333333;" vertex="1" parent="f_g_cmKm8SdJph2aCt_0-27">
          <mxGeometry x="160" width="80" height="20" as="geometry" />
        </mxCell>
        <mxCell id="f_g_cmKm8SdJph2aCt_0-28" value="" style="endArrow=none;html=1;rounded=0;edgeStyle=orthogonalEdgeStyle;endFill=0;" edge="1" parent="f_g_cmKm8SdJph2aCt_0-27">
          <mxGeometry width="50" height="50" relative="1" as="geometry">
            <mxPoint x="320" y="20" as="sourcePoint" />
            <mxPoint x="236" as="targetPoint" />
            <Array as="points">
              <mxPoint x="320" y="20" />
              <mxPoint x="240" y="20" />
            </Array>
          </mxGeometry>
        </mxCell>
        <mxCell id="f_g_cmKm8SdJph2aCt_0-29" value="" style="endArrow=none;html=1;rounded=0;edgeStyle=orthogonalEdgeStyle;endFill=0;" edge="1" parent="f_g_cmKm8SdJph2aCt_0-27">
          <mxGeometry width="50" height="50" relative="1" as="geometry">
            <mxPoint x="236" as="sourcePoint" />
            <mxPoint x="160" as="targetPoint" />
            <Array as="points">
              <mxPoint x="180" />
              <mxPoint x="180" />
            </Array>
          </mxGeometry>
        </mxCell>
        <mxCell id="f_g_cmKm8SdJph2aCt_0-30" value="" style="endArrow=none;html=1;rounded=0;edgeStyle=orthogonalEdgeStyle;endFill=0;" edge="1" parent="f_g_cmKm8SdJph2aCt_0-27">
          <mxGeometry width="50" height="50" relative="1" as="geometry">
            <mxPoint x="160" as="sourcePoint" />
            <mxPoint x="80" y="20" as="targetPoint" />
            <Array as="points">
              <mxPoint x="160" y="20" />
              <mxPoint x="80" y="20" />
            </Array>
          </mxGeometry>
        </mxCell>
        <mxCell id="f_g_cmKm8SdJph2aCt_0-31" value="" style="endArrow=none;html=1;rounded=0;edgeStyle=orthogonalEdgeStyle;endFill=0;" edge="1" parent="f_g_cmKm8SdJph2aCt_0-27">
          <mxGeometry width="50" height="50" relative="1" as="geometry">
            <mxPoint x="80" y="20" as="sourcePoint" />
            <mxPoint y="20" as="targetPoint" />
            <Array as="points">
              <mxPoint x="80" y="20" />
            </Array>
          </mxGeometry>
        </mxCell>
        <mxCell id="f_g_cmKm8SdJph2aCt_0-46" value="" style="rounded=0;whiteSpace=wrap;html=1;strokeColor=none;fillColor=#f5f5f5;fontColor=#333333;" vertex="1" parent="1">
          <mxGeometry x="400" y="462" width="80" height="20" as="geometry" />
        </mxCell>
        <mxCell id="f_g_cmKm8SdJph2aCt_0-13" value="" style="shape=hexagon;perimeter=hexagonPerimeter2;whiteSpace=wrap;html=1;fixedSize=1;size=4.615384615384585;fillColor=#E3E3E3;fontColor=#333333;strokeColor=#666666;" vertex="1" parent="1">
          <mxGeometry x="320" y="388" width="323" height="20" as="geometry" />
        </mxCell>
        <mxCell id="f_g_cmKm8SdJph2aCt_0-14" value="" style="group" vertex="1" connectable="0" parent="1">
          <mxGeometry x="320" y="310" width="320" height="20" as="geometry" />
        </mxCell>
        <mxCell id="f_g_cmKm8SdJph2aCt_0-2" value="" style="endArrow=classic;html=1;rounded=0;edgeStyle=orthogonalEdgeStyle;endFill=1;" edge="1" parent="f_g_cmKm8SdJph2aCt_0-14">
          <mxGeometry width="50" height="50" relative="1" as="geometry">
            <mxPoint as="sourcePoint" />
            <mxPoint x="80" as="targetPoint" />
            <Array as="points">
              <mxPoint x="40" />
              <mxPoint x="40" y="20" />
              <mxPoint x="80" y="20" />
              <mxPoint x="80" />
            </Array>
          </mxGeometry>
        </mxCell>
        <mxCell id="f_g_cmKm8SdJph2aCt_0-4" value="" style="endArrow=classic;html=1;rounded=0;edgeStyle=orthogonalEdgeStyle;endFill=1;" edge="1" parent="f_g_cmKm8SdJph2aCt_0-14">
          <mxGeometry width="50" height="50" relative="1" as="geometry">
            <mxPoint x="80" as="sourcePoint" />
            <mxPoint x="160" as="targetPoint" />
            <Array as="points">
              <mxPoint x="120" />
              <mxPoint x="120" y="20" />
              <mxPoint x="160" y="20" />
              <mxPoint x="160" />
            </Array>
          </mxGeometry>
        </mxCell>
        <mxCell id="f_g_cmKm8SdJph2aCt_0-5" value="" style="endArrow=classic;html=1;rounded=0;edgeStyle=orthogonalEdgeStyle;endFill=1;" edge="1" parent="f_g_cmKm8SdJph2aCt_0-14">
          <mxGeometry width="50" height="50" relative="1" as="geometry">
            <mxPoint x="160" as="sourcePoint" />
            <mxPoint x="240" as="targetPoint" />
            <Array as="points">
              <mxPoint x="200" />
              <mxPoint x="200" y="20" />
              <mxPoint x="240" y="20" />
              <mxPoint x="240" />
            </Array>
          </mxGeometry>
        </mxCell>
        <mxCell id="f_g_cmKm8SdJph2aCt_0-6" value="" style="endArrow=none;html=1;rounded=0;edgeStyle=orthogonalEdgeStyle;endFill=0;" edge="1" parent="f_g_cmKm8SdJph2aCt_0-14">
          <mxGeometry width="50" height="50" relative="1" as="geometry">
            <mxPoint x="240" as="sourcePoint" />
            <mxPoint x="320" y="20" as="targetPoint" />
            <Array as="points">
              <mxPoint x="280" />
              <mxPoint x="280" y="20" />
            </Array>
          </mxGeometry>
        </mxCell>
        <mxCell id="f_g_cmKm8SdJph2aCt_0-16" value="" style="endArrow=none;html=1;rounded=0;exitX=0;exitY=1;exitDx=0;exitDy=0;exitPerimeter=0;entryX=0.991;entryY=1.017;entryDx=0;entryDy=0;entryPerimeter=0;" edge="1" parent="1">
          <mxGeometry width="50" height="50" relative="1" as="geometry">
            <mxPoint x="320" y="430" as="sourcePoint" />
            <mxPoint x="640.0929999999998" y="430.34000000000003" as="targetPoint" />
          </mxGeometry>
        </mxCell>
        <mxCell id="f_g_cmKm8SdJph2aCt_0-20" value="" style="group" vertex="1" connectable="0" parent="1">
          <mxGeometry x="320" y="462" width="320" height="20" as="geometry" />
        </mxCell>
        <mxCell id="f_g_cmKm8SdJph2aCt_0-21" value="" style="endArrow=none;html=1;rounded=0;edgeStyle=orthogonalEdgeStyle;endFill=0;" edge="1" parent="f_g_cmKm8SdJph2aCt_0-20">
          <mxGeometry width="50" height="50" relative="1" as="geometry">
            <mxPoint y="20" as="sourcePoint" />
            <mxPoint x="84" as="targetPoint" />
            <Array as="points">
              <mxPoint y="20" />
              <mxPoint x="80" y="20" />
            </Array>
          </mxGeometry>
        </mxCell>
        <mxCell id="f_g_cmKm8SdJph2aCt_0-22" value="" style="endArrow=none;html=1;rounded=0;edgeStyle=orthogonalEdgeStyle;endFill=0;" edge="1" parent="f_g_cmKm8SdJph2aCt_0-20">
          <mxGeometry width="50" height="50" relative="1" as="geometry">
            <mxPoint x="84" as="sourcePoint" />
            <mxPoint x="160" as="targetPoint" />
            <Array as="points">
              <mxPoint x="140" />
              <mxPoint x="140" />
            </Array>
          </mxGeometry>
        </mxCell>
        <mxCell id="f_g_cmKm8SdJph2aCt_0-23" value="" style="endArrow=none;html=1;rounded=0;edgeStyle=orthogonalEdgeStyle;endFill=0;" edge="1" parent="f_g_cmKm8SdJph2aCt_0-20">
          <mxGeometry width="50" height="50" relative="1" as="geometry">
            <mxPoint x="160" as="sourcePoint" />
            <mxPoint x="240" y="20" as="targetPoint" />
            <Array as="points">
              <mxPoint x="160" y="20" />
              <mxPoint x="240" y="20" />
            </Array>
          </mxGeometry>
        </mxCell>
        <mxCell id="f_g_cmKm8SdJph2aCt_0-24" value="" style="endArrow=none;html=1;rounded=0;edgeStyle=orthogonalEdgeStyle;endFill=0;" edge="1" parent="f_g_cmKm8SdJph2aCt_0-20">
          <mxGeometry width="50" height="50" relative="1" as="geometry">
            <mxPoint x="240" y="20" as="sourcePoint" />
            <mxPoint x="320" y="20" as="targetPoint" />
            <Array as="points">
              <mxPoint x="240" y="20" />
            </Array>
          </mxGeometry>
        </mxCell>
        <mxCell id="f_g_cmKm8SdJph2aCt_0-32" value="" style="group" vertex="1" connectable="0" parent="1">
          <mxGeometry x="320" y="514" width="320" height="20" as="geometry" />
        </mxCell>
        <mxCell id="f_g_cmKm8SdJph2aCt_0-48" value="" style="rounded=0;whiteSpace=wrap;html=1;strokeColor=none;fillColor=#f5f5f5;fontColor=#333333;" vertex="1" parent="f_g_cmKm8SdJph2aCt_0-32">
          <mxGeometry x="80" width="160" height="20" as="geometry" />
        </mxCell>
        <mxCell id="f_g_cmKm8SdJph2aCt_0-33" value="" style="endArrow=none;html=1;rounded=0;edgeStyle=orthogonalEdgeStyle;endFill=0;" edge="1" parent="f_g_cmKm8SdJph2aCt_0-32">
          <mxGeometry width="50" height="50" relative="1" as="geometry">
            <mxPoint y="20" as="sourcePoint" />
            <mxPoint x="84" as="targetPoint" />
            <Array as="points">
              <mxPoint y="20" />
              <mxPoint x="80" y="20" />
            </Array>
          </mxGeometry>
        </mxCell>
        <mxCell id="f_g_cmKm8SdJph2aCt_0-34" value="" style="endArrow=none;html=1;rounded=0;edgeStyle=orthogonalEdgeStyle;endFill=0;" edge="1" parent="f_g_cmKm8SdJph2aCt_0-32">
          <mxGeometry width="50" height="50" relative="1" as="geometry">
            <mxPoint x="84" as="sourcePoint" />
            <mxPoint x="160" as="targetPoint" />
            <Array as="points">
              <mxPoint x="140" />
              <mxPoint x="140" />
            </Array>
          </mxGeometry>
        </mxCell>
        <mxCell id="f_g_cmKm8SdJph2aCt_0-35" value="" style="endArrow=none;html=1;rounded=0;edgeStyle=orthogonalEdgeStyle;endFill=0;" edge="1" parent="f_g_cmKm8SdJph2aCt_0-32">
          <mxGeometry width="50" height="50" relative="1" as="geometry">
            <mxPoint x="160" as="sourcePoint" />
            <mxPoint x="240" y="20" as="targetPoint" />
            <Array as="points">
              <mxPoint x="240" />
            </Array>
          </mxGeometry>
        </mxCell>
        <mxCell id="f_g_cmKm8SdJph2aCt_0-36" value="" style="endArrow=none;html=1;rounded=0;edgeStyle=orthogonalEdgeStyle;endFill=0;" edge="1" parent="f_g_cmKm8SdJph2aCt_0-32">
          <mxGeometry width="50" height="50" relative="1" as="geometry">
            <mxPoint x="240" y="20" as="sourcePoint" />
            <mxPoint x="320" y="20" as="targetPoint" />
            <Array as="points">
              <mxPoint x="240" y="20" />
            </Array>
          </mxGeometry>
        </mxCell>
        <mxCell id="f_g_cmKm8SdJph2aCt_0-38" value="" style="group" vertex="1" connectable="0" parent="1">
          <mxGeometry x="320" y="544" width="320" height="20" as="geometry" />
        </mxCell>
        <mxCell id="f_g_cmKm8SdJph2aCt_0-39" value="" style="endArrow=none;html=1;rounded=0;edgeStyle=orthogonalEdgeStyle;endFill=0;" edge="1" parent="f_g_cmKm8SdJph2aCt_0-38">
          <mxGeometry width="50" height="50" relative="1" as="geometry">
            <mxPoint y="16" as="sourcePoint" />
            <mxPoint x="84" y="16" as="targetPoint" />
            <Array as="points">
              <mxPoint y="16" />
              <mxPoint x="80" y="16" />
            </Array>
          </mxGeometry>
        </mxCell>
        <mxCell id="f_g_cmKm8SdJph2aCt_0-40" value="" style="endArrow=none;html=1;rounded=0;edgeStyle=orthogonalEdgeStyle;endFill=0;" edge="1" parent="f_g_cmKm8SdJph2aCt_0-38">
          <mxGeometry width="50" height="50" relative="1" as="geometry">
            <mxPoint x="84" y="16" as="sourcePoint" />
            <mxPoint x="160" y="16" as="targetPoint" />
            <Array as="points">
              <mxPoint x="84" y="16" />
              <mxPoint x="160" y="16" />
            </Array>
          </mxGeometry>
        </mxCell>
        <mxCell id="f_g_cmKm8SdJph2aCt_0-41" value="" style="endArrow=none;html=1;rounded=0;edgeStyle=orthogonalEdgeStyle;endFill=0;" edge="1" parent="f_g_cmKm8SdJph2aCt_0-38">
          <mxGeometry width="50" height="50" relative="1" as="geometry">
            <mxPoint x="160" y="16" as="sourcePoint" />
            <mxPoint x="240" y="16" as="targetPoint" />
            <Array as="points">
              <mxPoint x="160" y="16" />
            </Array>
          </mxGeometry>
        </mxCell>
        <mxCell id="f_g_cmKm8SdJph2aCt_0-42" value="" style="endArrow=none;html=1;rounded=0;edgeStyle=orthogonalEdgeStyle;endFill=0;" edge="1" parent="f_g_cmKm8SdJph2aCt_0-38">
          <mxGeometry width="50" height="50" relative="1" as="geometry">
            <mxPoint x="240" y="16" as="sourcePoint" />
            <mxPoint x="320" y="16" as="targetPoint" />
            <Array as="points">
              <mxPoint x="240" y="16" />
            </Array>
          </mxGeometry>
        </mxCell>
        <mxCell id="f_g_cmKm8SdJph2aCt_0-43" value="" style="group" vertex="1" connectable="0" parent="1">
          <mxGeometry x="320" y="336" width="323" height="20" as="geometry" />
        </mxCell>
        <mxCell id="f_g_cmKm8SdJph2aCt_0-7" value="" style="shape=hexagon;perimeter=hexagonPerimeter2;whiteSpace=wrap;html=1;fixedSize=1;size=4.615384615384585;fillColor=#E3E3E3;fontColor=#333333;strokeColor=#666666;" vertex="1" parent="f_g_cmKm8SdJph2aCt_0-43">
          <mxGeometry width="82" height="20" as="geometry" />
        </mxCell>
        <mxCell id="f_g_cmKm8SdJph2aCt_0-8" value="VALID" style="shape=hexagon;perimeter=hexagonPerimeter2;whiteSpace=wrap;html=1;fixedSize=1;size=4.615384615384585;" vertex="1" parent="f_g_cmKm8SdJph2aCt_0-43">
          <mxGeometry x="82" width="82" height="20" as="geometry" />
        </mxCell>
        <mxCell id="f_g_cmKm8SdJph2aCt_0-9" value="" style="shape=hexagon;perimeter=hexagonPerimeter2;whiteSpace=wrap;html=1;fixedSize=1;size=4.615384615384585;fillColor=#E3E3E3;fontColor=#333333;strokeColor=#666666;" vertex="1" parent="f_g_cmKm8SdJph2aCt_0-43">
          <mxGeometry x="164" width="159" height="20" as="geometry" />
        </mxCell>
        <mxCell id="f_g_cmKm8SdJph2aCt_0-44" value="" style="group" vertex="1" connectable="0" parent="1">
          <mxGeometry x="320" y="362" width="323" height="20" as="geometry" />
        </mxCell>
        <mxCell id="f_g_cmKm8SdJph2aCt_0-10" value="" style="shape=hexagon;perimeter=hexagonPerimeter2;whiteSpace=wrap;html=1;fixedSize=1;size=4.615384615384585;fillColor=#E3E3E3;fontColor=#333333;strokeColor=#666666;" vertex="1" parent="f_g_cmKm8SdJph2aCt_0-44">
          <mxGeometry width="160" height="20" as="geometry" />
        </mxCell>
        <mxCell id="f_g_cmKm8SdJph2aCt_0-11" value="VALID" style="shape=hexagon;perimeter=hexagonPerimeter2;whiteSpace=wrap;html=1;fixedSize=1;size=4.615384615384585;" vertex="1" parent="f_g_cmKm8SdJph2aCt_0-44">
          <mxGeometry x="160" width="80" height="20" as="geometry" />
        </mxCell>
        <mxCell id="f_g_cmKm8SdJph2aCt_0-12" value="" style="shape=hexagon;perimeter=hexagonPerimeter2;whiteSpace=wrap;html=1;fixedSize=1;size=4.615384615384585;fillColor=#E3E3E3;fontColor=#333333;strokeColor=#666666;" vertex="1" parent="f_g_cmKm8SdJph2aCt_0-44">
          <mxGeometry x="240" width="83" height="20" as="geometry" />
        </mxCell>
        <mxCell id="f_g_cmKm8SdJph2aCt_0-45" value="" style="group" vertex="1" connectable="0" parent="1">
          <mxGeometry x="320" y="436" width="323" height="20" as="geometry" />
        </mxCell>
        <mxCell id="f_g_cmKm8SdJph2aCt_0-17" value="" style="shape=hexagon;perimeter=hexagonPerimeter2;whiteSpace=wrap;html=1;fixedSize=1;size=4.615384615384585;fillColor=#E3E3E3;fontColor=#333333;strokeColor=#666666;" vertex="1" parent="f_g_cmKm8SdJph2aCt_0-45">
          <mxGeometry width="82" height="20" as="geometry" />
        </mxCell>
        <mxCell id="f_g_cmKm8SdJph2aCt_0-18" value="VALID" style="shape=hexagon;perimeter=hexagonPerimeter2;whiteSpace=wrap;html=1;fixedSize=1;size=4.615384615384585;" vertex="1" parent="f_g_cmKm8SdJph2aCt_0-45">
          <mxGeometry x="82" width="82" height="20" as="geometry" />
        </mxCell>
        <mxCell id="f_g_cmKm8SdJph2aCt_0-19" value="" style="shape=hexagon;perimeter=hexagonPerimeter2;whiteSpace=wrap;html=1;fixedSize=1;size=4.615384615384585;fillColor=#E3E3E3;fontColor=#333333;strokeColor=#666666;" vertex="1" parent="f_g_cmKm8SdJph2aCt_0-45">
          <mxGeometry x="164" width="159" height="20" as="geometry" />
        </mxCell>
        <mxCell id="f_g_cmKm8SdJph2aCt_0-49" value="clk_i" style="text;html=1;align=right;verticalAlign=middle;resizable=0;points=[];autosize=1;strokeColor=none;fillColor=none;" vertex="1" parent="1">
          <mxGeometry x="260" y="305" width="50" height="30" as="geometry" />
        </mxCell>
        <mxCell id="f_g_cmKm8SdJph2aCt_0-50" value="adr_o" style="text;html=1;align=right;verticalAlign=middle;resizable=0;points=[];autosize=1;strokeColor=none;fillColor=none;" vertex="1" parent="1">
          <mxGeometry x="260" y="330" width="50" height="30" as="geometry" />
        </mxCell>
        <mxCell id="f_g_cmKm8SdJph2aCt_0-51" value="dat_i" style="text;html=1;align=right;verticalAlign=middle;resizable=0;points=[];autosize=1;strokeColor=none;fillColor=none;" vertex="1" parent="1">
          <mxGeometry x="260" y="356" width="50" height="30" as="geometry" />
        </mxCell>
        <mxCell id="f_g_cmKm8SdJph2aCt_0-52" value="dat_o" style="text;html=1;align=right;verticalAlign=middle;resizable=0;points=[];autosize=1;strokeColor=none;fillColor=none;" vertex="1" parent="1">
          <mxGeometry x="260" y="381" width="50" height="30" as="geometry" />
        </mxCell>
        <mxCell id="f_g_cmKm8SdJph2aCt_0-53" value="we_o" style="text;html=1;align=right;verticalAlign=middle;resizable=0;points=[];autosize=1;strokeColor=none;fillColor=none;" vertex="1" parent="1">
          <mxGeometry x="261" y="407" width="50" height="30" as="geometry" />
        </mxCell>
        <mxCell id="f_g_cmKm8SdJph2aCt_0-54" value="sel_o" style="text;html=1;align=right;verticalAlign=middle;resizable=0;points=[];autosize=1;strokeColor=none;fillColor=none;" vertex="1" parent="1">
          <mxGeometry x="261" y="432" width="50" height="30" as="geometry" />
        </mxCell>
        <mxCell id="f_g_cmKm8SdJph2aCt_0-55" value="stb_o" style="text;html=1;align=right;verticalAlign=middle;resizable=0;points=[];autosize=1;strokeColor=none;fillColor=none;" vertex="1" parent="1">
          <mxGeometry x="261" y="458" width="50" height="30" as="geometry" />
        </mxCell>
        <mxCell id="f_g_cmKm8SdJph2aCt_0-56" value="ack_i" style="text;html=1;align=right;verticalAlign=middle;resizable=0;points=[];autosize=1;strokeColor=none;fillColor=none;" vertex="1" parent="1">
          <mxGeometry x="261" y="483" width="50" height="30" as="geometry" />
        </mxCell>
        <mxCell id="f_g_cmKm8SdJph2aCt_0-57" value="cyc_o" style="text;html=1;align=right;verticalAlign=middle;resizable=0;points=[];autosize=1;strokeColor=none;fillColor=none;" vertex="1" parent="1">
          <mxGeometry x="261" y="509" width="50" height="30" as="geometry" />
        </mxCell>
        <mxCell id="f_g_cmKm8SdJph2aCt_0-58" value="stall_i" style="text;html=1;align=right;verticalAlign=middle;resizable=0;points=[];autosize=1;strokeColor=none;fillColor=none;" vertex="1" parent="1">
          <mxGeometry x="261" y="534" width="50" height="30" as="geometry" />
        </mxCell>
      </root>
    </mxGraphModel>
  </diagram>
</mxfile>
